<svg xmlns="http://www.w3.org/2000/svg" viewBox="0 0 443.05 68.22"><defs><style>.cls-1{fill:none;stroke:#000;stroke-miterlimit:10;}</style></defs><title>Asset 3</title><g id="Layer_2" data-name="Layer 2"><g id="Layer_1-2" data-name="Layer 1"><path class="cls-1" d="M.5.82H11.33v42.5H37.2v9.32H.5Z"/><path class="cls-1" d="M75.63,48q-4.86,6-14.73,6T46.17,48a22.15,22.15,0,0,1-4.85-14.42,22.3,22.3,0,0,1,4.85-14.37Q51,13.09,60.9,13.09t14.73,6.07a22.35,22.35,0,0,1,4.85,14.37A22.2,22.2,0,0,1,75.63,48Zm-8-5.54Q70,39.29,70,33.53t-2.36-8.86a7.94,7.94,0,0,0-6.75-3.11,8,8,0,0,0-6.76,3.11q-2.39,3.1-2.38,8.86t2.38,8.88a8,8,0,0,0,6.76,3.13A8,8,0,0,0,67.61,42.41Z"/><path class="cls-1" d="M108.94,13.42l.86.05V23.74c-.63-.07-1.19-.12-1.69-.14s-.89,0-1.19,0q-6,0-8.12,3.94C98,29,97.64,31.25,97.64,34.32V52.64H87.55V14.32h9.56V21a21.19,21.19,0,0,1,4-5.24,11,11,0,0,1,7.31-2.36Z"/><path class="cls-1" d="M140.64,15.09a15.57,15.57,0,0,1,6.62,5.67,18.92,18.92,0,0,1,3.06,7.92,48.93,48.93,0,0,1,.33,7.61H122.74q.23,5.76,4,8.09a10.18,10.18,0,0,0,5.52,1.44,8.48,8.48,0,0,0,5.56-1.76,8.39,8.39,0,0,0,2.07-2.64h10.22c-.26,2.28-1.5,4.58-3.71,6.93q-5.15,5.58-14.42,5.59a20.82,20.82,0,0,1-13.49-4.72q-5.85-4.71-5.85-15.34,0-10,5.28-15.27t13.7-5.31A21.89,21.89,0,0,1,140.64,15.09Zm-15,8.66A10.47,10.47,0,0,0,123,29.68h17.27a8.43,8.43,0,0,0-2.67-6.06,8.83,8.83,0,0,0-6-2.06A8,8,0,0,0,125.65,23.75Z"/><path class="cls-1" d="M203.53,14.46a11.2,11.2,0,0,1,6.64,8.36,33.49,33.49,0,0,1,.35,5.66l-.07,24.16H200.19V28.24a8,8,0,0,0-.71-3.59Q198.15,22,194.56,22a5.77,5.77,0,0,0-5.73,3.45,10.75,10.75,0,0,0-.81,4.39V52.64H177.93V29.82a12.86,12.86,0,0,0-.7-5c-.84-1.85-2.5-2.77-5-2.77q-4.29,0-5.76,2.77a10.71,10.71,0,0,0-.81,4.71V52.64H155.54V14.39h9.74V20a16.13,16.13,0,0,1,3.51-4.26,13.89,13.89,0,0,1,14.66-.31,11.18,11.18,0,0,1,3.31,4.6,12.79,12.79,0,0,1,4.88-5,15,15,0,0,1,6.89-1.58A13.3,13.3,0,0,1,203.53,14.46Z"/><path class="cls-1" d="M250,9.75H239.88V.5H250Zm-10.16,4.57H250V52.64H239.88Z"/><path class="cls-1" d="M292,18.43q4.68,5,4.69,14.55,0,10.13-4.59,15.44a14.85,14.85,0,0,1-11.8,5.31,12.4,12.4,0,0,1-7.64-2.29,14.79,14.79,0,0,1-3.26-3.69v20h-9.91V14.32h9.6V20A16,16,0,0,1,272.52,16a12.83,12.83,0,0,1,8-2.57A15.15,15.15,0,0,1,292,18.43Zm-7.69,7.21c-1.36-2.28-3.57-3.41-6.63-3.41a7.52,7.52,0,0,0-7.56,5.16,19.45,19.45,0,0,0-1.07,7q0,6.68,3.59,9.38a8.18,8.18,0,0,0,5,1.58,7.32,7.32,0,0,0,6.45-3.23,15,15,0,0,0,2.22-8.61A15,15,0,0,0,284.28,25.64Z"/><path class="cls-1" d="M311.49,40.4a6.65,6.65,0,0,0,1.38,3.8c1.25,1.34,3.56,2,6.92,2a10.57,10.57,0,0,0,4.72-.88,2.81,2.81,0,0,0,1.75-2.63,2.85,2.85,0,0,0-1.41-2.57q-1.41-.87-10.48-3-6.54-1.62-9.21-4.05c-1.78-1.59-2.67-3.88-2.67-6.89A11.93,11.93,0,0,1,306.67,17q4.17-3.81,11.75-3.81,7.18,0,11.71,2.86t5.2,9.9h-10a6,6,0,0,0-1.09-3.06q-1.67-2-5.65-2a8.13,8.13,0,0,0-4.67,1,3,3,0,0,0-1.39,2.39A2.62,2.62,0,0,0,314,26.8q1.49.81,10.46,2.77,6,1.41,9,4.26A9.64,9.64,0,0,1,336.38,41a11.62,11.62,0,0,1-4.24,9.29Q327.9,53.95,319,53.94q-9.06,0-13.37-3.82a12.38,12.38,0,0,1-4.32-9.72Z"/><path class="cls-1" d="M353.75,14.32V37.41a12.27,12.27,0,0,0,.77,4.93q1.37,2.91,5.35,2.91,5.11,0,7-4.14a15.19,15.19,0,0,0,1-6V14.32H378V52.64h-9.74V47.22c-.09.12-.33.47-.7,1.06a7.3,7.3,0,0,1-1.33,1.54,14,14,0,0,1-4.54,2.89,15.66,15.66,0,0,1-5.14.77q-8.49,0-11.43-6.12c-1.1-2.25-1.65-5.56-1.65-10V14.32Z"/><path class="cls-1" d="M435.56,14.46a11.2,11.2,0,0,1,6.64,8.36,33.49,33.49,0,0,1,.35,5.66l-.07,24.16H432.22V28.24a8.17,8.17,0,0,0-.7-3.59Q430.17,22,426.59,22a5.77,5.77,0,0,0-5.73,3.45,10.75,10.75,0,0,0-.81,4.39V52.64H410V29.82a12.86,12.86,0,0,0-.7-5q-1.26-2.77-5-2.77-4.29,0-5.76,2.77a10.71,10.71,0,0,0-.81,4.71V52.64H387.57V14.39h9.74V20a16.13,16.13,0,0,1,3.51-4.26,13.89,13.89,0,0,1,14.66-.31,11.18,11.18,0,0,1,3.31,4.6,12.74,12.74,0,0,1,4.89-5,14.93,14.93,0,0,1,6.89-1.58A13.29,13.29,0,0,1,435.56,14.46Z"/></g></g></svg>
