<svg xmlns="http://www.w3.org/2000/svg" viewBox="-1 -1 444 75"><defs><style>.cls-1{fill:#FF0; stroke:#F00}</style></defs><g id="Layer_2" data-name="Layer 2"><g id="Layer_1-2" data-name="Layer 1"><path class="cls-1" d="M0,.32H10.83v42.5H36.7v9.32H0Z"/><path class="cls-1" d="M75.13,47.45q-4.86,6-14.73,6t-14.73-6A22.15,22.15,0,0,1,40.82,33a22.3,22.3,0,0,1,4.85-14.37q4.84-6.08,14.73-6.07t14.73,6.07A22.35,22.35,0,0,1,80,33,22.2,22.2,0,0,1,75.13,47.45Zm-8-5.54q2.36-3.12,2.36-8.88t-2.36-8.86a7.94,7.94,0,0,0-6.75-3.11,8,8,0,0,0-6.76,3.11q-2.39,3.1-2.38,8.86t2.38,8.88A8,8,0,0,0,60.36,45,8,8,0,0,0,67.11,41.91Z"/><path class="cls-1" d="M108.44,12.92l.86.05V23.24c-.63-.07-1.19-.12-1.69-.14s-.89,0-1.19,0q-6,0-8.12,3.94c-.78,1.48-1.16,3.75-1.16,6.82V52.14H87.05V13.82h9.56V20.5a21.19,21.19,0,0,1,4-5.24A11,11,0,0,1,108,12.9Z"/><path class="cls-1" d="M140.14,14.59a15.57,15.57,0,0,1,6.62,5.67,18.92,18.92,0,0,1,3.06,7.92,48.93,48.93,0,0,1,.33,7.61H122.24q.23,5.76,4,8.09a10.18,10.18,0,0,0,5.52,1.44,8.48,8.48,0,0,0,5.56-1.76,8.39,8.39,0,0,0,2.07-2.64h10.22c-.26,2.28-1.5,4.58-3.71,6.93q-5.15,5.58-14.42,5.59A20.82,20.82,0,0,1,118,48.72q-5.85-4.71-5.85-15.34,0-10,5.28-15.27t13.7-5.31A21.89,21.89,0,0,1,140.14,14.59Zm-15,8.66a10.47,10.47,0,0,0-2.67,5.93h17.27a8.43,8.43,0,0,0-2.67-6.06,8.83,8.83,0,0,0-6-2.06A8,8,0,0,0,125.15,23.25Z"/><path class="cls-1" d="M203,14a11.2,11.2,0,0,1,6.64,8.36A33.49,33.49,0,0,1,210,28L210,52.14H199.69V27.74a8,8,0,0,0-.71-3.59q-1.33-2.67-4.92-2.67a5.77,5.77,0,0,0-5.73,3.45,10.75,10.75,0,0,0-.81,4.39V52.14H177.43V29.32a12.86,12.86,0,0,0-.7-5c-.84-1.85-2.5-2.77-5-2.77q-4.29,0-5.76,2.77a10.71,10.71,0,0,0-.81,4.71V52.14H155V13.89h9.74v5.59a16.13,16.13,0,0,1,3.51-4.26A13.89,13.89,0,0,1,183,14.91a11.18,11.18,0,0,1,3.31,4.6,12.79,12.79,0,0,1,4.88-5A15,15,0,0,1,198,13,13.3,13.3,0,0,1,203,14Z"/><path class="cls-1" d="M249.54,9.25H239.38V0h10.16Zm-10.16,4.57h10.16V52.14H239.38Z"/><path class="cls-1" d="M291.47,17.93q4.68,5,4.69,14.55,0,10.13-4.59,15.44a14.85,14.85,0,0,1-11.8,5.31,12.4,12.4,0,0,1-7.64-2.29,14.79,14.79,0,0,1-3.26-3.69v20H259V13.82h9.6v5.66A16,16,0,0,1,272,15.54,12.83,12.83,0,0,1,280,13,15.15,15.15,0,0,1,291.47,17.93Zm-7.69,7.21c-1.36-2.28-3.57-3.41-6.63-3.41a7.52,7.52,0,0,0-7.56,5.16,19.45,19.45,0,0,0-1.07,7q0,6.68,3.59,9.38a8.18,8.18,0,0,0,5,1.58,7.32,7.32,0,0,0,6.45-3.23A15,15,0,0,0,285.82,33,15,15,0,0,0,283.78,25.14Z"/><path class="cls-1" d="M311,39.9a6.65,6.65,0,0,0,1.38,3.8c1.25,1.34,3.56,2,6.92,2a10.57,10.57,0,0,0,4.72-.88,2.81,2.81,0,0,0,1.75-2.63,2.85,2.85,0,0,0-1.41-2.57q-1.41-.87-10.48-3-6.54-1.62-9.21-4.05C302.88,31,302,28.67,302,25.66a11.93,11.93,0,0,1,4.18-9.12q4.17-3.81,11.75-3.81,7.18,0,11.71,2.86t5.2,9.9h-10a6,6,0,0,0-1.09-3.06q-1.67-2-5.65-2a8.13,8.13,0,0,0-4.67,1A3,3,0,0,0,312,23.8a2.62,2.62,0,0,0,1.48,2.5q1.49.81,10.46,2.77,6,1.41,9,4.26a9.64,9.64,0,0,1,2.95,7.21,11.62,11.62,0,0,1-4.24,9.29q-4.25,3.62-13.12,3.61-9.06,0-13.37-3.82a12.38,12.38,0,0,1-4.32-9.72Z"/><path class="cls-1" d="M353.25,13.82V36.91a12.27,12.27,0,0,0,.77,4.93q1.37,2.91,5.35,2.91,5.11,0,7-4.14a15.19,15.19,0,0,0,1-6V13.82h10.16V52.14h-9.74V46.72c-.09.12-.33.47-.7,1.06a7.3,7.3,0,0,1-1.33,1.54,14,14,0,0,1-4.54,2.89,15.66,15.66,0,0,1-5.14.77q-8.49,0-11.43-6.12c-1.1-2.25-1.65-5.56-1.65-10V13.82Z"/><path class="cls-1" d="M435.06,14a11.2,11.2,0,0,1,6.64,8.36,33.49,33.49,0,0,1,.35,5.66L442,52.14H431.72V27.74a8.17,8.17,0,0,0-.7-3.59q-1.35-2.67-4.93-2.67a5.77,5.77,0,0,0-5.73,3.45,10.75,10.75,0,0,0-.81,4.39V52.14H409.46V29.32a12.86,12.86,0,0,0-.7-5q-1.26-2.77-5-2.77-4.29,0-5.76,2.77a10.71,10.71,0,0,0-.81,4.71V52.14H387.07V13.89h9.74v5.59a16.13,16.13,0,0,1,3.51-4.26A13.89,13.89,0,0,1,415,14.91a11.18,11.18,0,0,1,3.31,4.6,12.74,12.74,0,0,1,4.89-5A14.93,14.93,0,0,1,430.07,13,13.29,13.29,0,0,1,435.06,14Z"/></g></g></svg>
