<svg xmlns="http://www.w3.org/2000/svg" viewBox="0 0 350.34 404.8"><defs><style>.cls-1{fill:none;stroke:#000;stroke-miterlimit:10;stroke-width:0.5px;}</style></defs><title>logo</title><g id="Layer_2" data-name="Layer 2"><g id="Layer_1-2" data-name="Layer 1"><path class="cls-1" d="M240,162.67c-3.58,5.52-7.13,11.06-10.75,16.56a53.17,53.17,0,0,1-20.2,18.19,39.24,39.24,0,0,1-9.34,3.38c-13,2.9-20.52-3.83-19.23-16.94s6.2-24.77,13.08-35.77a17.44,17.44,0,0,0,2.78-6c-5.74,2.65-11.54,5.17-17.14,8.07-.88.46-1,2.66-1.22,4.1-1.92,11-2.87,22.21-5.87,32.87-4.66,16.58-15.19,28.53-32.58,32.49-14.22,3.24-23.88-2.43-29.22-16-1.34-3.39-2.38-6.9-3.75-10.91-1.36,1-2.58,1.72-3.63,2.64-21.19,18.55-42.54,36.91-63.42,55.79-6.36,5.75-12.59,6.67-20.08,3.72-6.81-2.69-12.75-6.56-17-12.59-3.41-4.8-2.38-7.75.4-12.65a107.23,107.23,0,0,0,10.08-22.57c9.1-31.24,14.26-63.32,18-95.55,3.62-31.09,6-62.32,8.81-93.49a66.7,66.7,0,0,0,.22-10c-.24-3.89,1.33-5.86,5.13-6.55,8.8-1.59,17.52-1.86,26.22.61,9.52,2.69,13.65,9.23,10.59,18.56C70.7,54.55,63.58,89.44,57,124.41c-5.25,27.79-9.47,55.77-14,83.68-.63,3.91-.55,7.94-.79,11.92l1.25,1.16,60.74-46.33c-3.28-3.89-5.67-7.06-8.43-9.87-3.06-3.13-2.94-5.94-.33-9.23,8.48-10.66,16.83-21.42,25.27-32.11,14.46-18.3,40.21-18.12,51.61.41,1.9,3.09,3.22,6.53,5.06,10.33,5.88-1.79,11.77-3.4,17.53-5.37q20.06-6.87,40-14c6.1-2.18,9.59-1.57,13.31,4.13s7.71,9.72,15.27,8.63c3.85-.55,5.26,2.41,4.94,5.87-.78,8.28-1.74,16.54-2.62,24.81-.17,1.65-.26,3.31-.51,6.61,5.1-4.38,9.38-7.83,13.39-11.56,7.56-7,14.8-14.42,22.48-21.31A63.54,63.54,0,0,1,313,123.89c12.77-7,25.86-2.69,32.3,10.42,6.73,13.7,5.67,27.8,1.52,41.9a68.62,68.62,0,0,1-15.61,27c-8.58,9.43-19.15,14-32,13.51-8.76-.35-15.21-4.15-19.56-11.72a71.37,71.37,0,0,1-9.37-31c-4.06.6-5.66,2.49-6.14,6.46-4.47,37.19-8.78,74.41-13.93,111.51C247.79,309,244,326,240.25,342.85s-12,31.69-22.5,45.23c-6.47,8.33-14.24,15.39-25.3,16.33-12.68,1.08-22.67-4.05-29.31-15.16-8.29-13.86-13-29.05-17.16-44.52-4.48-16.66-1.88-32.26,5.45-47.49,9.81-20.39,22.65-38.84,36.77-56.35,14.32-17.77,29.23-35.06,44.17-52.31,3.84-4.44,6.77-8.8,6.94-14.85.1-3.6.93-7.17,1.43-10.75Zm-2.85,36.74-1.92-.73c-17.13,26.71-34.58,53.24-51.27,80.23-7.71,12.47-11.88,26.51-10.78,41.41,1,13.08,2.31,26.19,4.54,39.11A73.39,73.39,0,0,0,184.88,380c4.67,9.13,10.73,9.15,16.48.71a38.94,38.94,0,0,0,4.76-8.72c3.5-9.85,7.24-19.67,9.86-29.77C224.67,308.66,229.21,274.35,233,240,234.55,226.45,235.79,212.92,237.15,199.41ZM297,172.48l-.52,0c.68,5.28,1.22,10.58,2.08,15.82a28.54,28.54,0,0,0,2.15,6.63c3.35,7.57,8.2,9.6,15,5a37.49,37.49,0,0,0,10.57-11.65c7.68-12.82,8.81-26.3,1.87-39.93-2.55-5-5.76-6-10.65-3.38-4.12,2.18-8.08,4.65-12.19,6.82-5.54,2.92-8.42,7.35-8.32,13.66C297,167.82,297,170.15,297,172.48ZM164.68,154c-10.86,3.34-20.69,6.31-30.48,9.43-.87.28-2.09,1.49-2.07,2.24.26,11.26.15,22.57,1.31,33.75.63,6,5.12,7.78,10.83,5.65a14.83,14.83,0,0,0,5.77-3.78C161.91,188,163.85,171.74,164.68,154Zm72.13-16.8c-2.15.87-3.06,1.21-3.94,1.6-15.73,7-24.48,19.92-30.44,35.28-1.7,4.39-3.92,9.62.78,12.79s8.86-1,12.11-4.21c9.89-9.61,16.27-21.36,19.79-34.64C235.94,144.86,236.15,141.54,236.81,137.19Zm-74.54.08c-.79-2.66-1.14-4.46-1.84-6.11-1.89-4.4-5.78-6.18-9.7-3.94-7.45,4.29-13.36,10.27-18.77,18.74Z"/></g></g></svg>
