<svg xmlns="http://www.w3.org/2000/svg" viewBox="0 0 740.5 210.5"><title>NY_sky</title><g id="Layer_2" data-name="Layer 2"><g id="Layer_1-2" data-name="Layer 1"><path class="cls-1" d="M.5,210.5v-12l17.35-4.1V157.87l8.3,1.11.81-4.06,6.87,1.2,1.75,6.52c1.41-5.5,3.05-10.18,3.66-15,.3-2.44,1-2.47,2.83-2.43,5.37.11,10.74-.05,16.11.13,1.09,0,2.92.9,3.09,1.69,1,4.36,3.81,8.33,2.87,13.12a12,12,0,0,0,.19,3.14l1.2.35,2.84-6.72,7.88,6.34c-.09-2.41,0-5.09,3.74-3.51l.5,3.16c2.49.84,3.13-.2,3.37-2.46.34-3.26,1.13-6.47,1.72-9.69l1.19,0c.9,4.29,1.81,8.58,2.83,13.45,1.14-3.64,2.78-6.6,2.88-9.6.57-16.67.7-33.35,1.13-50a97,97,0,0,1,1.3-11.24,3.25,3.25,0,0,1,1.27-2.18c3.67-2,3.82-5.38,3.93-8.93.29-8.79.7-17.58,1.09-26.37a10.79,10.79,0,0,1,.76-2.13,8.33,8.33,0,0,1,.83,1.8c.43,6.77.86,13.54,1.21,20.31.12,2.24,0,4.5,0,6.75-.06,3.47.42,6.64,3.86,8.6a3.15,3.15,0,0,1,1.33,2.13c.84,7.54,1.9,15.08,2.22,22.65.38,8.95.09,17.93.09,27.09h9.25v-4.23c0-7-.09-14,.1-21,0-1.09,1.26-3,2.09-3.08,7.5-.81,15-1.3,23-1.91v12.48c1.6-.64,3.43-.85,3.64-1.55,1.72-5.63,6.74-7.87,10.91-10.93a3.94,3.94,0,0,1,3.47-.11c5.22,2.88,10.43,5.87,12.07,12.34,7.78-5.07,12.62-4.42,17.19,1.78a28.25,28.25,0,0,0,4.09,3.76l.9-.71c1.19,5.52,2.39,11,3.68,17,1.88-5.85,6.16-.65,9.05-2.68,0-1.05.13-2.27.15-3.49q.91-52.29,1.85-104.58c0-1.82-.6-3.74,2.3-4.69,2.35-.77,2.71-4.59,5.78-5.1.17,0,.26-.67.36-1,2.39-8.13,4.43-16.31,3.37-24.91h.75c-.52,8.4,1.74,16.32,4.27,24.18.24.78.74,2.09,1.15,2.1,3.43.1,3.82,2.38,3.69,4.93L238.49,33c.95,27.16,1.89,54.2,2.84,81.69h17.1c0,4.46-.09,8.46,0,12.45a11.57,11.57,0,0,0,.95,4.17c2.9,6.57,5.91,13,5,20.59a59.75,59.75,0,0,0,0,8.25c0,.85,0,2.32.34,2.46,3.05,1.15,1.81,3.66,1.94,5.66.15,2.32,0,4.66,0,7l1.12.2c.63-2.63,1.68-5.25,1.79-7.9.27-6.12.08-12.25.09-18.37,0-4.67.43-4.9,5.12-4.87a78.38,78.38,0,0,0,9.13-.9c1.34-.15,2.67-.39,4-.58l.2,1.07c.49-.5,1-1,1.27-1.33l4.86,2.92V171l1,.07a23.24,23.24,0,0,0,.71-3.74c.08-4.49,0-9,0-13.49,0-4,0-4,3.38-4.33.83-1.75,1.54-3.27,2.25-4.79l2.79,2.42a28.11,28.11,0,0,1,3.14-3.72c.71-.62,2.29-1.11,3-.74,1.23.69,2.07,2,3.06,3.14,3.45,3.8,6.06,8,6,13.32l8-.35c0-1.62,0-3.08,0-4.54-.06-12.62,0-25.25-.25-37.87-.05-3.34,1.17-4.36,4.36-4.22a60,60,0,0,0,7.83-.6v-4.26c0-9,0-18,0-27,0-1.77.11-3.43,2.35-3.45,7.83-.06,15.65,0,24.07,0V138l5,.67c.12,1.83.22,3.53.33,5.22l.73,0,2.33-6.37c1.39,2.73,2.36,4.63,3.32,6.54l.94-.27V107.34H414.9v4c0,10.13-.06,20.25.07,30.37,0,1.49,1,2.95,1.51,4.43l.79-.35c.35-6,.7-12,1.07-18.5l5.86.36c.16,2,.28,3.62.41,5.28l4.46,1v10.35l1.11.69a33.54,33.54,0,0,0,2.94-3.15,34.65,34.65,0,0,0,2.14-3.82c-1.21,4.84-.87,6.66,2.17,8,.12-.19.32-.38.35-.59,1.57-10.5,2.05-10.71,12.6-9.71,4.78.45,9.65.07,14.27.07.74-7.52,1.44-14.55,2.17-21.9H475c.67,3.95,1.47,7.71,1.92,11.51.42,3.55-.45,7.26.51,10.73l1.55-.1c.15-2.87.3-5.73.47-8.92h10.24c0-9.09.21-17.82-.09-26.54-.14-3.84,1.24-5.11,4.85-5.07,10,.08,20,0,30,.08,1.18,0,2.34.8,4,1.4.51-3,1.06-6.28,1.62-9.58,1.64,5.29,3.31,10.32,4.75,15.41a109,109,0,0,1,3.42,14c.79,5.4.8,10.91,1.13,16l18.28.81v10.34c4.39-1.42,3.45-5,4.2-7.33l2.25,6.82c2.17-1.52,4.46-2.36,5.39-4a17.26,17.26,0,0,0,1.89-7.31,68,68,0,0,0,0-12.36,8.87,8.87,0,0,1,3.52-8.8c3.79-3.15,6.6-7.78,12.62-6.39.21,0,.46-.15.79-.28,1.22-4.18,2.46-8.41,3.53-12.09,3.67,2.64,1.28,9.21,7.12,11,.44.14.7,1.3.81,2a45.83,45.83,0,0,1,.73,6.26c.09,6.71,0,13.42,0,20.17h9.15c.11-2.4.2-4.48.27-6,2.24-1,4.53-1.28,5.65-2.59,2.86-3.33,10.67-4.44,13.72-1.61,1.7,1.58,3.66,2.89,5.51,4.32l1-.72v11.63c4.18-.65,7.84-1.38,11.53-1.74,2.19-.21,6.29-.11,6.36.33.67,4.4,4.52,2.48,7,3.73v13.09h9.06V139.51c0-5,1.14-6.5,6.12-7.73.14-1.13.29-2.33.45-3.66l7.43-.38V108.28c4.1-1.73,8.16-1.56,11.91-4,3.07-2,7.91-2.12,11.75,2.09,1.4-6.08,5.74-4.77,9.53-4.82a25,25,0,0,0,3,0c3.75-.51,5.85,1,6.07,5.2h10c.52,9.61.5,18.85,1.6,28.13,1.42,12.07.29,24.43.44,36.66,0,1.24,1.3,2.46,2,3.69v10.5c-.64.28-1.83.54-1.85.85a79.91,79.91,0,0,0,0,8.19c0,.26,1.21.47,1.86.71v15"/></g></g></svg>
